# xmcd
#
# Track frame offsets: 
#        150
#        28053
#        41604
#        56409
#        66684
#        78571
#        89574
#        100814
#        116419
#        139512
#        151139
#        162948
#        173197
#        186800
#        198323
#
# Disc length: 3091 seconds
#
# Revision: 1
# Processed by: cddbd v1.5.2PL0 Copyright (c) Steve Scherf et al.
# Submitted via: ExactAudioCopyFreeDBPlugin 1.0
#
DISCID=c90c110f
DTITLE=Ray Charles - Anthology - Vol. 3
DYEAR=2005
DGENRE=R&B
TTITLE0=What I'd Say (live)
TTITLE1=The Midnight Hour
TTITLE2=Eleanor Rigby (live)
TTITLE3=Ain't That Fine
TTITLE4=Can't You See Darling?
TTITLE5=I Wonder Who's Kissing Her Now?
TTITLE6=Let's Have A Ball
TTITLE7=You Are My Sunshine (live)
TTITLE8=I'm Gonna Move To The Outskirts Of Town
TTITLE9=Guitar Blues
TTITLE10=Roll With My Baby
TTITLE11=Sitting On Top Of The World (Now She's Gone)
TTITLE12=Baby Let Me Hold Your Hand
TTITLE13=Let The Good Times Roll (live)
TTITLE14=Georgia On My Mind (live)
EXTD=
EXTT0=
EXTT1=
EXTT2=
EXTT3=
EXTT4=
EXTT5=
EXTT6=
EXTT7=
EXTT8=
EXTT9=
EXTT10=
EXTT11=
EXTT12=
EXTT13=
EXTT14=
PLAYORDER=
